<svg xmlns="http://www.w3.org/2000/svg" xmlns:xlink="http://www.w3.org/1999/xlink" width="930" zoomAndPan="magnify" viewBox="0 0 697.5 697.499983" height="930" preserveAspectRatio="xMidYMid meet" version="1.0"><defs><clipPath id="9635de6294"><path d="M 209.097656 348 L 487.894531 348 L 487.894531 485.980469 L 209.097656 485.980469 Z M 209.097656 348 " clip-rule="nonzero"/></clipPath><clipPath id="9b53a31a02"><path d="M 209.097656 211 L 487.894531 211 L 487.894531 349 L 209.097656 349 Z M 209.097656 211 " clip-rule="nonzero"/></clipPath><clipPath id="b812713dc9"><path d="M 209.097656 416 L 351 416 L 351 485.980469 L 209.097656 485.980469 Z M 209.097656 416 " clip-rule="nonzero"/></clipPath><clipPath id="0705813b10"><path d="M 209.097656 211 L 351 211 L 351 281 L 209.097656 281 Z M 209.097656 211 " clip-rule="nonzero"/></clipPath></defs><g clip-path="url(#9635de6294)"><path fill="#fafafa" d="M 209.1875 486.015625 L 350.335938 486.015625 L 487.804688 348.550781 L 346.65625 348.550781 L 209.1875 486.015625 " fill-opacity="1" fill-rule="nonzero"/></g><g clip-path="url(#9b53a31a02)"><path fill="#05eefd" d="M 209.1875 211.078125 L 350.335938 211.078125 L 487.804688 348.550781 L 346.65625 348.550781 L 209.1875 211.078125 " fill-opacity="1" fill-rule="nonzero"/></g><g clip-path="url(#b812713dc9)"><path fill="#d8d8d8" d="M 279.761719 416.15625 L 350.335938 486.015625 L 209.1875 486.015625 Z M 279.761719 416.15625 " fill-opacity="1" fill-rule="nonzero"/></g><g clip-path="url(#0705813b10)"><path fill="#0bc8d4" d="M 279.761719 280.941406 L 350.335938 211.078125 L 209.1875 211.078125 Z M 279.761719 280.941406 " fill-opacity="1" fill-rule="nonzero"/></g></svg>