<svg xmlns="http://www.w3.org/2000/svg" xmlns:xlink="http://www.w3.org/1999/xlink" width="930" zoomAndPan="magnify" viewBox="0 0 697.5 697.499983" height="930" preserveAspectRatio="xMidYMid meet" version="1.0"><defs><g/></defs><g fill="#ffffff" fill-opacity="1"><g transform="translate(209.843106, 242.013659)"><g><path d="M 5.578125 -82.078125 C 5.578125 -109.160156 12.015625 -130.140625 24.890625 -145.015625 C 37.773438 -159.890625 53.644531 -167.328125 72.5 -167.328125 C 91.363281 -167.328125 107.203125 -159.890625 120.015625 -145.015625 C 132.835938 -130.140625 139.25 -109.160156 139.25 -82.078125 C 139.25 -67.328125 137.453125 -54.375 133.859375 -43.21875 C 130.273438 -32.070312 125.328125 -23.207031 119.015625 -16.625 C 112.710938 -10.050781 105.675781 -5.140625 97.90625 -1.890625 C 90.132812 1.359375 81.664062 2.984375 72.5 2.984375 C 63.34375 2.984375 54.878906 1.359375 47.109375 -1.890625 C 39.335938 -5.140625 32.265625 -10.050781 25.890625 -16.625 C 19.515625 -23.207031 14.535156 -32.070312 10.953125 -43.21875 C 7.367188 -54.375 5.578125 -67.328125 5.578125 -82.078125 Z M 43.421875 -82.078125 C 43.421875 -64.671875 45.941406 -51.617188 50.984375 -42.921875 C 56.035156 -34.222656 63.210938 -29.875 72.515625 -29.875 C 81.671875 -29.875 88.769531 -34.222656 93.8125 -42.921875 C 98.863281 -51.617188 101.390625 -64.671875 101.390625 -82.078125 C 101.390625 -98.671875 98.832031 -111.550781 93.71875 -120.71875 C 88.613281 -129.882812 81.546875 -134.46875 72.515625 -134.46875 C 63.484375 -134.46875 56.375 -129.847656 51.1875 -120.609375 C 46.007812 -111.378906 43.421875 -98.535156 43.421875 -82.078125 Z M 43.421875 -82.078125 "/></g></g></g><g fill="#ffffff" fill-opacity="1"><g transform="translate(354.666347, 242.013659)"><g><path d="M 40.84375 -116.9375 L 11.359375 -131.28125 C 11.617188 -132.207031 12.015625 -133.5 12.546875 -135.15625 C 13.078125 -136.820312 14.671875 -139.710938 17.328125 -143.828125 C 19.984375 -147.941406 23.101562 -151.59375 26.6875 -154.78125 C 30.28125 -157.96875 35.523438 -160.851562 42.421875 -163.4375 C 49.328125 -166.03125 57.097656 -167.328125 65.734375 -167.328125 C 81.410156 -167.328125 94.328125 -162.84375 104.484375 -153.875 C 114.640625 -144.914062 119.71875 -133.460938 119.71875 -119.515625 C 119.71875 -106.503906 114.867188 -96.210938 105.171875 -88.640625 C 119.117188 -80.140625 126.09375 -67.59375 126.09375 -51 C 126.09375 -35.320312 120.347656 -22.40625 108.859375 -12.25 C 97.378906 -2.09375 82.804688 2.984375 65.140625 2.984375 C 55.710938 2.984375 47.144531 1.59375 39.4375 -1.1875 C 31.738281 -3.976562 25.726562 -7.332031 21.40625 -11.25 C 17.09375 -15.164062 13.507812 -19.113281 10.65625 -23.09375 C 7.800781 -27.082031 5.84375 -30.472656 4.78125 -33.265625 L 3.390625 -37.453125 L 38.046875 -54.375 C 38.046875 -53.71875 38.144531 -52.820312 38.34375 -51.6875 C 38.539062 -50.5625 39.238281 -48.535156 40.4375 -45.609375 C 41.632812 -42.691406 43.09375 -40.132812 44.8125 -37.9375 C 46.539062 -35.75 49.164062 -33.757812 52.6875 -31.96875 C 56.207031 -30.175781 60.289062 -29.28125 64.9375 -29.28125 C 71.976562 -29.28125 77.6875 -31.207031 82.0625 -35.0625 C 86.445312 -38.914062 88.640625 -44.226562 88.640625 -51 C 88.640625 -58.03125 86.347656 -63.800781 81.765625 -68.3125 C 77.191406 -72.832031 71.582031 -75.09375 64.9375 -75.09375 L 57.765625 -73.90625 L 57.765625 -98.40625 L 65.9375 -98.40625 C 71.113281 -98.40625 75.691406 -100.394531 79.671875 -104.375 C 83.660156 -108.363281 85.65625 -113.28125 85.65625 -119.125 C 85.65625 -124.300781 83.628906 -128.613281 79.578125 -132.0625 C 75.523438 -135.519531 70.78125 -137.25 65.34375 -137.25 C 61.488281 -137.25 58 -136.550781 54.875 -135.15625 C 51.757812 -133.757812 49.367188 -132.066406 47.703125 -130.078125 C 46.046875 -128.085938 44.648438 -126.09375 43.515625 -124.09375 C 42.390625 -122.101562 41.695312 -120.445312 41.4375 -119.125 Z M 40.84375 -116.9375 "/></g></g></g></svg>