<svg xmlns="http://www.w3.org/2000/svg" xmlns:xlink="http://www.w3.org/1999/xlink" width="930" zoomAndPan="magnify" viewBox="0 0 697.5 697.499983" height="930" preserveAspectRatio="xMidYMid meet" version="1.0"><defs><g/></defs><g fill="#ffffff" fill-opacity="1"><g transform="translate(234.909925, 242.013659)"><g><path d="M 5.578125 -82.078125 C 5.578125 -109.160156 12.015625 -130.140625 24.890625 -145.015625 C 37.773438 -159.890625 53.644531 -167.328125 72.5 -167.328125 C 91.363281 -167.328125 107.203125 -159.890625 120.015625 -145.015625 C 132.835938 -130.140625 139.25 -109.160156 139.25 -82.078125 C 139.25 -67.328125 137.453125 -54.375 133.859375 -43.21875 C 130.273438 -32.070312 125.328125 -23.207031 119.015625 -16.625 C 112.710938 -10.050781 105.675781 -5.140625 97.90625 -1.890625 C 90.132812 1.359375 81.664062 2.984375 72.5 2.984375 C 63.34375 2.984375 54.878906 1.359375 47.109375 -1.890625 C 39.335938 -5.140625 32.265625 -10.050781 25.890625 -16.625 C 19.515625 -23.207031 14.535156 -32.070312 10.953125 -43.21875 C 7.367188 -54.375 5.578125 -67.328125 5.578125 -82.078125 Z M 43.421875 -82.078125 C 43.421875 -64.671875 45.941406 -51.617188 50.984375 -42.921875 C 56.035156 -34.222656 63.210938 -29.875 72.515625 -29.875 C 81.671875 -29.875 88.769531 -34.222656 93.8125 -42.921875 C 98.863281 -51.617188 101.390625 -64.671875 101.390625 -82.078125 C 101.390625 -98.671875 98.832031 -111.550781 93.71875 -120.71875 C 88.613281 -129.882812 81.546875 -134.46875 72.515625 -134.46875 C 63.484375 -134.46875 56.375 -129.847656 51.1875 -120.609375 C 46.007812 -111.378906 43.421875 -98.535156 43.421875 -82.078125 Z M 43.421875 -82.078125 "/></g></g></g><g fill="#ffffff" fill-opacity="1"><g transform="translate(379.733167, 242.013659)"><g><path d="M 5.78125 -97.015625 L 5.78125 -134.0625 L 52.59375 -164.34375 L 70.3125 -164.34375 L 70.3125 0 L 32.875 0 L 32.875 -114.546875 Z M 5.78125 -97.015625 "/></g></g></g></svg>