<svg xmlns="http://www.w3.org/2000/svg" xmlns:xlink="http://www.w3.org/1999/xlink" width="930" zoomAndPan="magnify" viewBox="0 0 697.5 697.499983" height="930" preserveAspectRatio="xMidYMid meet" version="1.0"><defs><g/></defs><g fill="#ffffff" fill-opacity="1"><g transform="translate(201.044818, 242.013659)"><g><path d="M 5.578125 -82.078125 C 5.578125 -109.160156 12.015625 -130.140625 24.890625 -145.015625 C 37.773438 -159.890625 53.644531 -167.328125 72.5 -167.328125 C 91.363281 -167.328125 107.203125 -159.890625 120.015625 -145.015625 C 132.835938 -130.140625 139.25 -109.160156 139.25 -82.078125 C 139.25 -67.328125 137.453125 -54.375 133.859375 -43.21875 C 130.273438 -32.070312 125.328125 -23.207031 119.015625 -16.625 C 112.710938 -10.050781 105.675781 -5.140625 97.90625 -1.890625 C 90.132812 1.359375 81.664062 2.984375 72.5 2.984375 C 63.34375 2.984375 54.878906 1.359375 47.109375 -1.890625 C 39.335938 -5.140625 32.265625 -10.050781 25.890625 -16.625 C 19.515625 -23.207031 14.535156 -32.070312 10.953125 -43.21875 C 7.367188 -54.375 5.578125 -67.328125 5.578125 -82.078125 Z M 43.421875 -82.078125 C 43.421875 -64.671875 45.941406 -51.617188 50.984375 -42.921875 C 56.035156 -34.222656 63.210938 -29.875 72.515625 -29.875 C 81.671875 -29.875 88.769531 -34.222656 93.8125 -42.921875 C 98.863281 -51.617188 101.390625 -64.671875 101.390625 -82.078125 C 101.390625 -98.671875 98.832031 -111.550781 93.71875 -120.71875 C 88.613281 -129.882812 81.546875 -134.46875 72.515625 -134.46875 C 63.484375 -134.46875 56.375 -129.847656 51.1875 -120.609375 C 46.007812 -111.378906 43.421875 -98.535156 43.421875 -82.078125 Z M 43.421875 -82.078125 "/></g></g></g><g fill="#ffffff" fill-opacity="1"><g transform="translate(345.868059, 242.013659)"><g><path d="M 72.3125 -135.65625 C 67 -135.65625 61.914062 -133.03125 57.0625 -127.78125 C 52.21875 -122.539062 48.671875 -117.332031 46.421875 -112.15625 L 43.03125 -104.375 L 11.75 -119.515625 C 12.144531 -120.847656 12.804688 -122.578125 13.734375 -124.703125 C 14.671875 -126.828125 16.863281 -130.644531 20.3125 -136.15625 C 23.769531 -141.664062 27.585938 -146.507812 31.765625 -150.6875 C 35.953125 -154.875 41.664062 -158.691406 48.90625 -162.140625 C 56.144531 -165.597656 63.945312 -167.328125 72.3125 -167.328125 C 83.070312 -167.328125 92.46875 -165.960938 100.5 -163.234375 C 108.53125 -160.515625 114.738281 -157.128906 119.125 -153.078125 C 123.507812 -149.035156 127.0625 -144.257812 129.78125 -138.75 C 132.5 -133.238281 134.222656 -128.222656 134.953125 -123.703125 C 135.691406 -119.191406 136.0625 -114.476562 136.0625 -109.5625 C 136.0625 -102.394531 134.066406 -94.859375 130.078125 -86.953125 C 126.097656 -79.046875 121.285156 -72.003906 115.640625 -65.828125 C 109.992188 -59.660156 104.316406 -54.019531 98.609375 -48.90625 C 92.898438 -43.789062 88.050781 -39.835938 84.0625 -37.046875 L 78.09375 -32.875 L 139.046875 -32.875 L 139.046875 0 L 10.953125 0 L 10.953125 -9.359375 C 13.210938 -11.222656 16.265625 -13.78125 20.109375 -17.03125 C 23.960938 -20.28125 30.738281 -26.488281 40.4375 -35.65625 C 50.132812 -44.820312 58.703125 -53.421875 66.140625 -61.453125 C 73.578125 -69.484375 80.347656 -78.082031 86.453125 -87.25 C 92.566406 -96.414062 95.625 -103.851562 95.625 -109.5625 C 95.625 -111.820312 95.390625 -114.078125 94.921875 -116.328125 C 94.453125 -118.585938 93.550781 -121.34375 92.21875 -124.59375 C 90.894531 -127.851562 88.503906 -130.507812 85.046875 -132.5625 C 81.597656 -134.625 77.351562 -135.65625 72.3125 -135.65625 Z M 72.3125 -135.65625 "/></g></g></g></svg>